<svg width="88" height="66" viewBox="0 0 88 66" fill="none" xmlns="http://www.w3.org/2000/svg">
<path d="M75.808 7.68798C68.192 1.56398 56.144 0.527981 55.632 0.483981C54.828 0.415981 54.064 0.871981 53.736 1.60798C53.712 1.65598 53.448 2.25998 53.156 3.19998C58.192 4.04798 64.38 5.75998 69.98 9.23598C70.876 9.79198 71.152 10.972 70.596 11.872C70.236 12.456 69.608 12.776 68.968 12.776C68.624 12.776 68.276 12.684 67.96 12.488C58.336 6.51998 46.312 6.21998 44 6.21998C41.688 6.21998 29.66 6.51998 20.044 12.488C19.144 13.048 17.968 12.768 17.408 11.872C16.848 10.972 17.128 9.79598 18.024 9.23598C23.624 5.76398 29.808 4.04798 34.848 3.19998C34.552 2.25598 34.288 1.65598 34.268 1.60798C33.936 0.871981 33.176 0.407981 32.368 0.487981C31.86 0.527981 19.812 1.56398 12.092 7.77598C8.06 11.5 0 33.292 0 52.132C0 52.464 0.0879999 52.792 0.252 53.08C5.816 62.852 20.992 65.412 24.452 65.524C24.472 65.524 24.492 65.524 24.512 65.524C25.124 65.524 25.7 65.232 26.06 64.736L29.56 59.928C20.124 57.488 15.304 53.348 15.024 53.104C14.232 52.404 14.156 51.196 14.856 50.404C15.556 49.612 16.76 49.536 17.552 50.232C17.668 50.336 26.544 57.868 44 57.868C61.488 57.868 70.364 50.304 70.452 50.228C71.244 49.54 72.452 49.612 73.148 50.408C73.844 51.2 73.768 52.404 72.98 53.1C72.7 53.348 67.88 57.484 58.444 59.924L61.944 64.732C62.304 65.228 62.88 65.52 63.492 65.52C63.512 65.52 63.532 65.52 63.552 65.52C67.012 65.412 82.188 62.852 87.752 53.076C87.912 52.788 88 52.464 88 52.132C88 33.292 79.94 11.5 75.808 7.68798ZM31.564 44.48C27.868 44.48 24.868 41.052 24.868 36.828C24.868 32.604 27.864 29.176 31.564 29.176C35.264 29.176 38.26 32.604 38.26 36.828C38.26 41.052 35.264 44.48 31.564 44.48ZM56.436 44.48C52.74 44.48 49.74 41.052 49.74 36.828C49.74 32.604 52.736 29.176 56.436 29.176C60.132 29.176 63.132 32.604 63.132 36.828C63.132 41.052 60.132 44.48 56.436 44.48Z" fill="white"/>
</svg>
